<svg xmlns="http://www.w3.org/2000/svg" id="TRAILER" name="TRAILER" data-testid="TRAILER" fill="white" viewBox="0 0 24 24" class="style__StyledSVG-sc-1q4gzla-0 bcwQYB"><g stroke="none" stroke-width="1" fill="none" fill-rule="evenodd"><path d="M2.64092 22C1.73625 22 1 21.2522 1 20.332V3.66802C1 2.74777 1.73625 2 2.64092 2H21.3591C22.2637 2 23 2.74777 23 3.66802V20.332C23 21.2522 22.2637 22 21.3591 22H2.64092ZM1.93084 21.0404H22.0566V10.0958H1.93084V21.0404ZM20.4248 9.14782H22.0555V2.9596H16.3749L20.426 9.14782H20.4248ZM14.5803 9.14782H19.3028L15.2494 2.9596H10.5292L14.5803 9.14782ZM8.73465 9.14782H13.456L9.4049 2.9596H4.68355L8.73465 9.14782ZM1.94336 9.14782H7.61035L3.55925 2.9596H1.94222V9.14782H1.94336Z" fill="#F0F0F0"></path><path d="M11 13L14 15.0007L11 17V13Z" fill="#F0F0F0"></path></g></svg>